<?xml version="1.0" encoding="utf-8"?>
<!-- Generator: Adobe Illustrator 22.0.1, SVG Export Plug-In . SVG Version: 6.00 Build 0)  -->
<svg version="1.1" id="Camada_1" xmlns="http://www.w3.org/2000/svg" xmlns:xlink="http://www.w3.org/1999/xlink" x="0px" y="0px"
	 viewBox="0 0 24 24" style="enable-background:new 0 0 24 24;" xml:space="preserve">
<style type="text/css">
	.st0{fill:none;}
	.st1{fill:#FAAC19;}
</style>
<path class="st0" d="M0,0h24v24H0V0z"/>
<g>
	<path class="st1" d="M9,17l3-2.9c-0.4,0-0.7-0.1-1-0.1c-2.7,0-8,1.3-8,4v2h9L9,17z M11,12c2.2,0,4-1.8,4-4s-1.8-4-4-4S7,5.8,7,8
		S8.8,12,11,12"/>
	<path class="st1" d="M15.5,20.5L12,17l1.4-1.4l2.1,2.1l5.1-5.2l1.4,1.4L15.5,20.5z"/>
</g>
</svg>
