<?xml version="1.0" encoding="utf-8"?>
<!-- Generator: Adobe Illustrator 22.0.1, SVG Export Plug-In . SVG Version: 6.00 Build 0)  -->
<svg version="1.1" id="Camada_1" xmlns="http://www.w3.org/2000/svg" xmlns:xlink="http://www.w3.org/1999/xlink" x="0px" y="0px"
	 viewBox="0 0 24 24" style="enable-background:new 0 0 24 24;" xml:space="preserve">
<style type="text/css">
	.st0{fill:none;}
	.st1{fill:#4C4C4C;}
</style>
<path class="st0" d="M0,0h24v24H0V0z"/>
<path class="st1" d="M10.8,16.3c0.4,0.4,1,0.4,1.4,0l3.6-3.6c0.4-0.4,0.4-1,0-1.4l-3.6-3.6c-0.4-0.4-1-0.4-1.4,0s-0.4,1,0,1.4
	l1.9,1.9H4c-0.5,0-1,0.4-1,1s0.5,1,1,1h8.7l-1.9,1.9C10.4,15.3,10.4,15.9,10.8,16.3z M19,3H5C3.9,3,3,3.9,3,5v3c0,0.6,0.5,1,1,1
	s1-0.4,1-1V6c0-0.6,0.4-1,1-1h12c0.5,0,1,0.4,1,1v12c0,0.5-0.5,1-1,1H6c-0.6,0-1-0.5-1-1v-2c0-0.6-0.4-1-1-1s-1,0.4-1,1v3
	c0,1.1,0.9,2,2,2h14c1.1,0,2-0.9,2-2V5C21,3.9,20.1,3,19,3z"/>
</svg>
